<svg width="126" height="18" viewBox="0 0 126 18" fill="none" xmlns="http://www.w3.org/2000/svg">
<path d="M16.824 0.719999L13.8 18H9.456L10.56 11.76H5.88L4.8 18H0.456L3.504 0.719999H7.824L6.528 8.016H11.208L12.504 0.719999H16.824ZM25.5424 6.792L29.5984 0.719999H33.9184L26.5264 11.352L25.3504 18H21.0064L22.1824 11.352L18.5344 0.719999H23.1184L24.9904 6.792H25.5424ZM40.7477 12.744H37.8917L36.9557 18H32.6357L35.6837 0.719999H43.0037C44.8117 0.719999 46.0997 1.136 46.8677 1.968C47.4277 2.608 47.7077 3.424 47.7077 4.416C47.7077 4.752 47.6757 5.104 47.6117 5.472L47.1317 8.184C46.8917 9.512 46.1877 10.608 45.0197 11.472C43.8517 12.32 42.4277 12.744 40.7477 12.744ZM41.4917 4.464H39.3317L38.5397 9H40.6757C41.9877 9 42.7477 8.416 42.9557 7.248L43.1237 6.264C43.1557 6.12 43.1717 5.928 43.1717 5.688C43.1717 5.448 43.0517 5.184 42.8117 4.896C42.5717 4.608 42.1317 4.464 41.4917 4.464ZM59.9884 18H47.9404L50.9884 0.719999H63.0364L62.3644 4.464H54.6364L54.0844 7.704H60.4684L59.7964 11.448H53.4124L52.9324 14.256H60.6604L59.9884 18Z" fill="black"/>
<path d="M79.1209 0.719999L76.0969 18H71.7529L72.8569 11.76H68.1769L67.0969 18H62.7529L65.8009 0.719999H70.1209L68.8249 8.016H73.5049L74.8009 0.719999H79.1209ZM91.5353 18H79.4873L82.5353 0.719999H94.5833L93.9113 4.464H86.1833L85.6313 7.704H92.0153L91.3433 11.448H84.9593L84.4793 14.256H92.2073L91.5353 18ZM104.308 0.719999C106.132 0.719999 107.428 1.12 108.196 1.92C108.772 2.528 109.06 3.296 109.06 4.224C109.06 4.544 109.028 4.88 108.964 5.232L108.628 7.104C108.436 8.144 108.1 8.984 107.62 9.624C107.156 10.264 106.636 10.72 106.06 10.992L108.244 18H103.396L101.38 11.544H99.8918L98.9078 18H94.2998L97.3478 0.719999H104.308ZM102.796 4.464H100.996L100.372 8.64H102.052C102.9 8.64 103.508 8.44 103.876 8.04C104.244 7.624 104.428 7.08 104.428 6.408C104.428 5.112 103.884 4.464 102.796 4.464ZM122.098 18H110.05L113.098 0.719999H125.146L124.474 4.464H116.746L116.194 7.704H122.578L121.906 11.448H115.522L115.042 14.256H122.77L122.098 18Z" fill="#75F7FF"/>
</svg>
